<svg width="1em" height="1em" viewBox="0 0 24 24" fill="none" xmlns="http://www.w3.org/2000/svg">
<path d="M3 6.75C3 5.75544 3.39509 4.80161 4.09835 4.09835C4.80161 3.39509 5.75544 3 6.75 3H17.25C18.2446 3 19.1984 3.39509 19.9016 4.09835C20.6049 4.80161 21 5.75544 21 6.75V17.25C21 18.2446 20.6049 19.1984 19.9016 19.9016C19.1984 20.6049 18.2446 21 17.25 21H6.75C5.75544 21 4.80161 20.6049 4.09835 19.9016C3.39509 19.1984 3 18.2446 3 17.25V6.75ZM8.886 7.8525C8.79969 7.7144 8.67077 7.60814 8.51873 7.54979C8.36669 7.49144 8.19978 7.48416 8.04324 7.52906C7.88669 7.57396 7.74902 7.66859 7.65101 7.79865C7.55301 7.92872 7.5 8.08715 7.5 8.25V15.75C7.5 15.9489 7.57902 16.1397 7.71967 16.2803C7.86032 16.421 8.05109 16.5 8.25 16.5C8.44891 16.5 8.63968 16.421 8.78033 16.2803C8.92098 16.1397 9 15.9489 9 15.75V10.8645L11.364 14.6475C11.4314 14.7554 11.5252 14.8443 11.6364 14.906C11.7477 14.9676 11.8728 15 12 15C12.1272 15 12.2523 14.9676 12.3636 14.906C12.4748 14.8443 12.5686 14.7554 12.636 14.6475L15 10.8645V15.75C15 15.9489 15.079 16.1397 15.2197 16.2803C15.3603 16.421 15.5511 16.5 15.75 16.5C15.9489 16.5 16.1397 16.421 16.2803 16.2803C16.421 16.1397 16.5 15.9489 16.5 15.75V8.25C16.5 8.08715 16.447 7.92872 16.349 7.79865C16.251 7.66859 16.1133 7.57396 15.9568 7.52906C15.8002 7.48416 15.6333 7.49144 15.4813 7.54979C15.3292 7.60814 15.2003 7.7144 15.114 7.8525L12 12.8355L8.886 7.8525Z" fill="currentColor"/>
</svg>
