<svg width="20" height="20" viewBox="0 0 20 20" fill="none" xmlns="http://www.w3.org/2000/svg">
<path d="M8.16676 2.76C8.25896 2.8712 8.31544 3.0073 8.3289 3.15069C8.34237 3.29409 8.31221 3.4382 8.24232 3.56441C7.69629 4.55958 7.41113 5.67508 7.41308 6.80829C7.41308 10.5781 10.509 13.6308 14.3246 13.6308C14.8224 13.6308 15.3069 13.5792 15.7725 13.4808C15.9152 13.4501 16.0639 13.4618 16.2 13.5145C16.336 13.5672 16.4534 13.6585 16.5375 13.777C16.6263 13.9003 16.6715 14.0492 16.6662 14.2006C16.661 14.352 16.6054 14.4974 16.5082 14.6142C15.7675 15.5175 14.833 16.2453 13.7729 16.7445C12.7128 17.2437 11.5539 17.5018 10.3806 17.5C6.02662 17.5 2.5 14.018 2.5 9.72779C2.5 6.49891 4.49659 3.72942 7.33942 2.55562C7.48103 2.49621 7.63823 2.48401 7.78742 2.52087C7.93661 2.55772 8.06972 2.64163 8.16676 2.76Z" fill="#7E22CE"/>
</svg>
