<svg width="20" height="20" viewBox="0 0 20 20" fill="none" xmlns="http://www.w3.org/2000/svg">
<path d="M10 6.5C9.07174 6.5 8.1815 6.86875 7.52513 7.52513C6.86875 8.1815 6.5 9.07174 6.5 10C6.5 10.9283 6.86875 11.8185 7.52513 12.4749C8.1815 13.1313 9.07174 13.5 10 13.5C10.9283 13.5 11.8185 13.1313 12.4749 12.4749C13.1313 11.8185 13.5 10.9283 13.5 10C13.5 9.07174 13.1313 8.1815 12.4749 7.52513C11.8185 6.86875 10.9283 6.5 10 6.5Z" fill="#F59E0B"/>
<path fill-rule="evenodd" clip-rule="evenodd" d="M10 2.5C10.1808 2.5 10.3543 2.57183 10.4821 2.6997C10.61 2.82757 10.6818 3.00099 10.6818 3.18182V3.86364C10.6818 4.04447 10.61 4.21789 10.4821 4.34575C10.3543 4.47362 10.1808 4.54545 10 4.54545C9.81917 4.54545 9.64575 4.47362 9.51788 4.34575C9.39002 4.21789 9.31818 4.04447 9.31818 3.86364V3.18182C9.31818 3.00099 9.39002 2.82757 9.51788 2.6997C9.64575 2.57183 9.81917 2.5 10 2.5ZM4.06341 4.06341C4.19127 3.93559 4.36466 3.86378 4.54545 3.86378C4.72625 3.86378 4.89964 3.93559 5.0275 4.06341L6.05023 5.08614C6.17443 5.21473 6.24315 5.38696 6.2416 5.56573C6.24004 5.7445 6.16834 5.91551 6.04192 6.04192C5.91551 6.16834 5.7445 6.24004 5.56573 6.2416C5.38696 6.24315 5.21473 6.17443 5.08614 6.05023L4.06341 5.0275C3.93559 4.89964 3.86378 4.72625 3.86378 4.54545C3.86378 4.36466 3.93559 4.19127 4.06341 4.06341ZM15.9366 4.06341C16.0644 4.19127 16.1362 4.36466 16.1362 4.54545C16.1362 4.72625 16.0644 4.89964 15.9366 5.0275L14.9139 6.05023C14.851 6.11535 14.7757 6.16729 14.6925 6.20302C14.6094 6.23876 14.5199 6.25757 14.4294 6.25835C14.3388 6.25914 14.2491 6.24189 14.1653 6.20761C14.0815 6.17332 14.0053 6.1227 13.9413 6.05868C13.8773 5.99466 13.8267 5.91853 13.7924 5.83474C13.7581 5.75095 13.7409 5.66117 13.7416 5.57064C13.7424 5.4801 13.7612 5.39064 13.797 5.30745C13.8327 5.22427 13.8847 5.14903 13.9498 5.08614L14.9725 4.06341C15.1004 3.93559 15.2738 3.86378 15.4545 3.86378C15.6353 3.86378 15.8087 3.93559 15.9366 4.06341ZM2.5 10C2.5 9.81917 2.57183 9.64575 2.6997 9.51788C2.82757 9.39002 3.00099 9.31818 3.18182 9.31818H3.86364C4.04447 9.31818 4.21789 9.39002 4.34575 9.51788C4.47362 9.64575 4.54545 9.81917 4.54545 10C4.54545 10.1808 4.47362 10.3543 4.34575 10.4821C4.21789 10.61 4.04447 10.6818 3.86364 10.6818H3.18182C3.00099 10.6818 2.82757 10.61 2.6997 10.4821C2.57183 10.3543 2.5 10.1808 2.5 10ZM15.4545 10C15.4545 9.81917 15.5264 9.64575 15.6542 9.51788C15.7821 9.39002 15.9555 9.31818 16.1364 9.31818H16.8182C16.999 9.31818 17.1724 9.39002 17.3003 9.51788C17.4282 9.64575 17.5 9.81917 17.5 10C17.5 10.1808 17.4282 10.3543 17.3003 10.4821C17.1724 10.61 16.999 10.6818 16.8182 10.6818H16.1364C15.9555 10.6818 15.7821 10.61 15.6542 10.4821C15.5264 10.3543 15.4545 10.1808 15.4545 10ZM6.05023 13.9498C6.17805 14.0776 6.24985 14.251 6.24985 14.4318C6.24985 14.6126 6.17805 14.786 6.05023 14.9139L5.0275 15.9366C4.89891 16.0608 4.72668 16.1295 4.54791 16.128C4.36914 16.1264 4.19813 16.0547 4.07171 15.9283C3.9453 15.8019 3.87359 15.6309 3.87204 15.4521C3.87049 15.2733 3.93921 15.1011 4.06341 14.9725L5.08614 13.9498C5.214 13.822 5.38739 13.7501 5.56818 13.7501C5.74898 13.7501 5.92237 13.822 6.05023 13.9498ZM13.9498 13.9498C14.0776 13.822 14.251 13.7501 14.4318 13.7501C14.6126 13.7501 14.786 13.822 14.9139 13.9498L15.9366 14.9725C16.0608 15.1011 16.1295 15.2733 16.128 15.4521C16.1264 15.6309 16.0547 15.8019 15.9283 15.9283C15.8019 16.0547 15.6309 16.1264 15.4521 16.128C15.2733 16.1295 15.1011 16.0608 14.9725 15.9366L13.9498 14.9139C13.822 14.786 13.7501 14.6126 13.7501 14.4318C13.7501 14.251 13.822 14.0776 13.9498 13.9498ZM10 15.4545C10.1808 15.4545 10.3543 15.5264 10.4821 15.6542C10.61 15.7821 10.6818 15.9555 10.6818 16.1364V16.8182C10.6818 16.999 10.61 17.1724 10.4821 17.3003C10.3543 17.4282 10.1808 17.5 10 17.5C9.81917 17.5 9.64575 17.4282 9.51788 17.3003C9.39002 17.1724 9.31818 16.999 9.31818 16.8182V16.1364C9.31818 15.9555 9.39002 15.7821 9.51788 15.6542C9.64575 15.5264 9.81917 15.4545 10 15.4545Z" fill="#F59E0B"/>
</svg>
